# xmcd
#
# Track frame offsets: 
#        150
#        18736
#        34905
#        55748
#        77040
#        94229
#        116350
#        131749
#        153149
#        177698
#        192972
#
# Disc length: 3131 seconds
#
# Revision: 0
# Processed by: cddbd v1.5.2PL0 Copyright (c) Steve Scherf et al.
# Submitted via: ExactAudioCopy v0.95b3
#
DISCID=900c390b
DTITLE=Randy Rogers Band - Rollercoaster
DYEAR=2004
DGENRE=Country
TTITLE0=Down and Out
TTITLE1=Somebody Take Me Home
TTITLE2=This Time Around
TTITLE3=Love Must Follow You Around
TTITLE4=Lay It All On You
TTITLE5=Tonight's Not The Night
TTITLE6=Again
TTITLE7=Can't Slow Down
TTITLE8=They Call It The Hill Country
TTITLE9=Ten Miles Deep
TTITLE10=I Miss You With Me (Live)
EXTD=
EXTT0=
EXTT1=
EXTT2=
EXTT3=
EXTT4=
EXTT5=
EXTT6=
EXTT7=
EXTT8=
EXTT9=
EXTT10=
PLAYORDER=
